<?xml version="1.0" standalone="no"?>
<!DOCTYPE svg PUBLIC "-//W3C//DTD SVG 20010904//EN"
 "http://www.w3.org/TR/2001/REC-SVG-20010904/DTD/svg10.dtd">
<svg version="1.0" xmlns="http://www.w3.org/2000/svg"
 width="16.000000pt" height="16.000000pt" viewBox="0 0 16.000000 16.000000"
 preserveAspectRatio="xMidYMid meet">

<g transform="translate(0.000000,16.000000) scale(0.100000,-0.100000)"
fill="#000000" stroke="none">
<path d="M52 108 c-14 -14 -16 -44 -3 -53 5 -3 12 -1 16 5 3 5 1 10 -4 10 -18
0 -13 28 7 39 9 6 12 11 7 11 -6 0 -16 -5 -23 -12z"/>
<path d="M86 104 c-4 -9 -1 -23 5 -30 6 -7 7 -19 3 -26 -5 -10 -4 -10 6 -1 10
9 10 15 1 26 -6 8 -9 22 -5 31 3 9 4 16 1 16 -3 0 -8 -7 -11 -16z"/>
</g>
</svg>
